<svg width="14" height="18" viewBox="0 0 14 18" fill="none" xmlns="http://www.w3.org/2000/svg">
<path d="M7 17.3333C7.91667 17.3333 8.66667 16.5833 8.66667 15.6666H5.33334C5.33334 16.5833 6.08334 17.3333 7 17.3333Z" fill="currentColor"/>
<path d="M12.8333 13.1666H12V7.33329C12 5.00829 10.4083 3.04996 8.25 2.49996V1.91663C8.25 1.22496 7.69167 0.666626 7 0.666626C6.30834 0.666626 5.75 1.22496 5.75 1.91663V2.49996C3.59167 3.04996 2 5.00829 2 7.33329V13.1666H1.16667C0.708336 13.1666 0.333336 13.5416 0.333336 14C0.333336 14.4583 0.708336 14.8333 1.16667 14.8333H12.8333C13.2917 14.8333 13.6667 14.4583 13.6667 14C13.6667 13.5416 13.2917 13.1666 12.8333 13.1666ZM8.66667 9.83329H7.83333V10.6666C7.83333 11.125 7.45834 11.5 7 11.5C6.54167 11.5 6.16667 11.125 6.16667 10.6666V9.83329H5.33334C4.875 9.83329 4.5 9.45829 4.5 8.99996C4.5 8.54163 4.875 8.16663 5.33334 8.16663H6.16667V7.33329C6.16667 6.87496 6.54167 6.49996 7 6.49996C7.45834 6.49996 7.83333 6.87496 7.83333 7.33329V8.16663H8.66667C9.125 8.16663 9.5 8.54163 9.5 8.99996C9.5 9.45829 9.125 9.83329 8.66667 9.83329Z" fill="currentColor"/>
</svg>
