<svg width="16" height="18" viewBox="0 0 16 18" fill="none" xmlns="http://www.w3.org/2000/svg">
<path d="M6.34167 16.3C6.34167 17.2167 7.08333 17.9584 8 17.9584C8.91667 17.9584 9.65833 17.2167 9.65833 16.3H6.34167ZM8 3.79169C10.3 3.79169 12.1667 5.65835 12.1667 7.95835V13.7917H3.83333V7.95835C3.83333 5.65835 5.7 3.79169 8 3.79169ZM8 0.041687C7.30833 0.041687 6.75 0.60002 6.75 1.29169V2.26669C4.13333 2.83335 2.16667 5.16669 2.16667 7.95835V12.9584L0.5 14.625V15.4584H15.5V14.625L13.8333 12.9584V7.95835C13.8333 5.16669 11.8667 2.83335 9.25 2.26669V1.29169C9.25 0.60002 8.69167 0.041687 8 0.041687ZM8.83333 5.45835H7.16667V7.95835H4.66667V9.62502H7.16667V12.125H8.83333V9.62502H11.3333V7.95835H8.83333V5.45835Z" fill="currentColor"/>
</svg>

