<svg width="20" height="20" viewBox="0 0 20 20" fill="none" xmlns="http://www.w3.org/2000/svg">
<path d="M10 6.66671C8.15837 6.66671 6.66671 8.15837 6.66671 10C6.66671 11.8417 8.15837 13.3334 10 13.3334C11.8417 13.3334 13.3334 11.8417 13.3334 10C13.3334 8.15837 11.8417 6.66671 10 6.66671ZM17.45 9.16671C17.0667 5.69171 14.3084 2.93337 10.8334 2.55004V0.833374H9.16671V2.55004C5.69171 2.93337 2.93337 5.69171 2.55004 9.16671H0.833374V10.8334H2.55004C2.93337 14.3084 5.69171 17.0667 9.16671 17.45V19.1667H10.8334V17.45C14.3084 17.0667 17.0667 14.3084 17.45 10.8334H19.1667V9.16671H17.45ZM10 15.8334C6.77504 15.8334 4.16671 13.225 4.16671 10C4.16671 6.77504 6.77504 4.16671 10 4.16671C13.225 4.16671 15.8334 6.77504 15.8334 10C15.8334 13.225 13.225 15.8334 10 15.8334Z" fill="currentColor"/>
</svg>
