<svg viewBox="0 0 24 24" size="16" class="icon-base__IconBase-sc-1efctcf-0 brXpAW"><g fill="currentColor"><path fill="currentColor" d="M3.727 6.564c0-.588.477-1.064 1.064-1.064h14.418c.588 0 1.064.476 1.064 1.064V6.8c0 .587-.476 1.064-1.064 1.064H4.791A1.064 1.064 0 0 1 3.727 6.8v-.236zm0 5.318c0-.588.477-1.064 1.064-1.064h14.418c.588 0 1.064.476 1.064 1.064v.236c0 .588-.476 1.064-1.064 1.064H4.791a1.064 1.064 0 0 1-1.064-1.064v-.236zm1.064 4.254c-.588 0-1.064.477-1.064 1.064v.236c0 .588.477 1.064 1.064 1.064h14.418c.588 0 1.064-.476 1.064-1.064V17.2c0-.587-.476-1.064-1.064-1.064H4.791zM3.727 6.564c0-.588.477-1.064 1.064-1.064h14.418c.588 0 1.064.476 1.064 1.064V6.8c0 .587-.476 1.064-1.064 1.064H4.791A1.064 1.064 0 0 1 3.727 6.8v-.236zm0 5.318c0-.588.477-1.064 1.064-1.064h14.418c.588 0 1.064.476 1.064 1.064v.236c0 .588-.476 1.064-1.064 1.064H4.791a1.064 1.064 0 0 1-1.064-1.064v-.236zm1.064 4.254c-.588 0-1.064.477-1.064 1.064v.236c0 .588.477 1.064 1.064 1.064h14.418c.588 0 1.064-.476 1.064-1.064V17.2c0-.587-.476-1.064-1.064-1.064H4.791zM3.727 6.564c0-.588.477-1.064 1.064-1.064h14.418c.588 0 1.064.476 1.064 1.064V6.8c0 .587-.476 1.064-1.064 1.064H4.791A1.064 1.064 0 0 1 3.727 6.8v-.236zm0 5.318c0-.588.477-1.064 1.064-1.064h14.418c.588 0 1.064.476 1.064 1.064v.236c0 .588-.476 1.064-1.064 1.064H4.791a1.064 1.064 0 0 1-1.064-1.064v-.236zm1.064 4.254c-.588 0-1.064.477-1.064 1.064v.236c0 .588.477 1.064 1.064 1.064h14.418c.588 0 1.064-.476 1.064-1.064V17.2c0-.587-.476-1.064-1.064-1.064H4.791z"></path><path fill="currentColor" d="M3.727 6.564c0-.588.477-1.064 1.064-1.064h14.418c.588 0 1.064.476 1.064 1.064V6.8c0 .587-.476 1.064-1.064 1.064H4.791A1.064 1.064 0 0 1 3.727 6.8v-.236zm0 5.318c0-.588.477-1.064 1.064-1.064h14.418c.588 0 1.064.476 1.064 1.064v.236c0 .588-.476 1.064-1.064 1.064H4.791a1.064 1.064 0 0 1-1.064-1.064v-.236zm1.064 4.254c-.588 0-1.064.477-1.064 1.064v.236c0 .588.477 1.064 1.064 1.064h14.418c.588 0 1.064-.476 1.064-1.064V17.2c0-.587-.476-1.064-1.064-1.064H4.791zM3.727 6.564c0-.588.477-1.064 1.064-1.064h14.418c.588 0 1.064.476 1.064 1.064V6.8c0 .587-.476 1.064-1.064 1.064H4.791A1.064 1.064 0 0 1 3.727 6.8v-.236zm0 5.318c0-.588.477-1.064 1.064-1.064h14.418c.588 0 1.064.476 1.064 1.064v.236c0 .588-.476 1.064-1.064 1.064H4.791a1.064 1.064 0 0 1-1.064-1.064v-.236zm1.064 4.254c-.588 0-1.064.477-1.064 1.064v.236c0 .588.477 1.064 1.064 1.064h14.418c.588 0 1.064-.476 1.064-1.064V17.2c0-.587-.476-1.064-1.064-1.064H4.791zM3.727 6.564c0-.588.477-1.064 1.064-1.064h14.418c.588 0 1.064.476 1.064 1.064V6.8c0 .587-.476 1.064-1.064 1.064H4.791A1.064 1.064 0 0 1 3.727 6.8v-.236zm0 5.318c0-.588.477-1.064 1.064-1.064h14.418c.588 0 1.064.476 1.064 1.064v.236c0 .588-.476 1.064-1.064 1.064H4.791a1.064 1.064 0 0 1-1.064-1.064v-.236zm1.064 4.254c-.588 0-1.064.477-1.064 1.064v.236c0 .588.477 1.064 1.064 1.064h14.418c.588 0 1.064-.476 1.064-1.064V17.2c0-.587-.476-1.064-1.064-1.064H4.791z"></path><path fill="currentColor" d="M3.727 6.564c0-.588.477-1.064 1.064-1.064h14.418c.588 0 1.064.476 1.064 1.064V6.8c0 .587-.476 1.064-1.064 1.064H4.791A1.064 1.064 0 0 1 3.727 6.8v-.236zm0 5.318c0-.588.477-1.064 1.064-1.064h14.418c.588 0 1.064.476 1.064 1.064v.236c0 .588-.476 1.064-1.064 1.064H4.791a1.064 1.064 0 0 1-1.064-1.064v-.236zm1.064 4.254c-.588 0-1.064.477-1.064 1.064v.236c0 .588.477 1.064 1.064 1.064h14.418c.588 0 1.064-.476 1.064-1.064V17.2c0-.587-.476-1.064-1.064-1.064H4.791zM3.727 6.564c0-.588.477-1.064 1.064-1.064h14.418c.588 0 1.064.476 1.064 1.064V6.8c0 .587-.476 1.064-1.064 1.064H4.791A1.064 1.064 0 0 1 3.727 6.8v-.236zm0 5.318c0-.588.477-1.064 1.064-1.064h14.418c.588 0 1.064.476 1.064 1.064v.236c0 .588-.476 1.064-1.064 1.064H4.791a1.064 1.064 0 0 1-1.064-1.064v-.236zm1.064 4.254c-.588 0-1.064.477-1.064 1.064v.236c0 .588.477 1.064 1.064 1.064h14.418c.588 0 1.064-.476 1.064-1.064V17.2c0-.587-.476-1.064-1.064-1.064H4.791zM3.727 6.564c0-.588.477-1.064 1.064-1.064h14.418c.588 0 1.064.476 1.064 1.064V6.8c0 .587-.476 1.064-1.064 1.064H4.791A1.064 1.064 0 0 1 3.727 6.8v-.236zm0 5.318c0-.588.477-1.064 1.064-1.064h14.418c.588 0 1.064.476 1.064 1.064v.236c0 .588-.476 1.064-1.064 1.064H4.791a1.064 1.064 0 0 1-1.064-1.064v-.236zm1.064 4.254c-.588 0-1.064.477-1.064 1.064v.236c0 .588.477 1.064 1.064 1.064h14.418c.588 0 1.064-.476 1.064-1.064V17.2c0-.587-.476-1.064-1.064-1.064H4.791z"></path></g></svg>