<svg width="14" height="18" viewBox="0 0 14 18" fill="none" xmlns="http://www.w3.org/2000/svg">
<path d="M7.00001 9.00002C6.08334 9.00002 5.33334 8.25002 5.33334 7.33335C5.33334 6.41669 6.08334 5.66669 7.00001 5.66669C7.91668 5.66669 8.66668 6.41669 8.66668 7.33335C8.66668 8.25002 7.91668 9.00002 7.00001 9.00002ZM12 7.50002C12 4.47502 9.79168 2.33335 7.00001 2.33335C4.20834 2.33335 2.00001 4.47502 2.00001 7.50002C2.00001 9.45002 3.62501 12.0334 7.00001 15.1167C10.375 12.0334 12 9.45002 12 7.50002ZM7.00001 0.666687C10.5 0.666687 13.6667 3.35002 13.6667 7.50002C13.6667 10.2667 11.4417 13.5417 7.00001 17.3334C2.55834 13.5417 0.333344 10.2667 0.333344 7.50002C0.333344 3.35002 3.50001 0.666687 7.00001 0.666687Z" fill="currentColor"/>
</svg>
