<svg width="16" height="16" viewBox="0 0 16 16" fill="none" xmlns="http://www.w3.org/2000/svg">
<path d="M13.8333 10.65V3.83333C13.8333 1.99167 12.3417 0.5 10.5 0.5C8.65833 0.5 7.16667 1.99167 7.16667 3.83333V12.1667C7.16667 13.0833 6.41667 13.8333 5.5 13.8333C4.58333 13.8333 3.83333 13.0833 3.83333 12.1667V5.35C4.8 5 5.5 4.08333 5.5 3C5.5 1.61667 4.38333 0.5 3 0.5C1.61667 0.5 0.5 1.61667 0.5 3C0.5 4.08333 1.2 5 2.16667 5.35V12.1667C2.16667 14.0083 3.65833 15.5 5.5 15.5C7.34167 15.5 8.83333 14.0083 8.83333 12.1667V3.83333C8.83333 2.91667 9.58333 2.16667 10.5 2.16667C11.4167 2.16667 12.1667 2.91667 12.1667 3.83333V10.65C11.2 10.9917 10.5 11.9083 10.5 13C10.5 14.3833 11.6167 15.5 13 15.5C14.3833 15.5 15.5 14.3833 15.5 13C15.5 11.9167 14.8 11 13.8333 10.65Z" fill="currentColor"/>
</svg>
